<?xml version="1.0" encoding="UTF-8"?>
<!DOCTYPE svg PUBLIC "-//W3C//DTD SVG 1.1//EN" "http://www.w3.org/Graphics/SVG/1.1/DTD/svg11.dtd">
<!-- Creator: CorelDRAW 2019 (64-Bit) -->
<svg xmlns="http://www.w3.org/2000/svg" xml:space="preserve" width="210mm" height="297mm" version="1.1" style="shape-rendering:geometricPrecision; text-rendering:geometricPrecision; image-rendering:optimizeQuality; fill-rule:evenodd; clip-rule:evenodd"
viewBox="0 0 21000 29700"
 xmlns:xlink="http://www.w3.org/1999/xlink">
 <defs>
  <style type="text/css">
   <![CDATA[
    .str0 {stroke:#2B2A29;stroke-width:20;stroke-miterlimit:22.9256}
    .fil2 {fill:#EECFDF}
    .fil1 {fill:#603161}
    .fil3 {fill:#603161}
    .fil0 {fill:white}
   ]]>
  </style>
 </defs>
 <g id="Слой_x0020_1">
  <metadata id="CorelCorpID_0Corel-Layer"/>
  <path class="fil0" d="M10928.55 13745.55c-183.28,42.57 -274.29,139.14 -275.19,291.99 -1.03,177.99 98.66,259.72 418.36,343.06 155.39,40.48 208.2,110.65 134.7,178.81 -83.42,77.31 -246.67,27.17 -267.23,-82.15 -10.19,-54.56 -9.68,-54.4 -180.9,-44.87l-151.74 8.41 7.3 47.78c11.24,73.66 72.02,187.38 123.83,231.72 153.51,131.34 576.26,117.87 720.99,-23.07l42.33 -41.22 8.12 47.92c29.77,176.29 208.81,341.92 414.79,383.75l66.15 13.47 -39.08 51.2c-128.96,168.91 -132.61,514.35 -7.3,693.76 191.77,274.51 731.41,266.54 908.98,-13.39l33.05 -52.1 0 248.47 836.33 0 0 -267.15 -499.48 0 0 -778.3 -336.87 0 -0.66 119.06c-0.58,97.26 -3.2,114.91 -14.5,96.36 -64,-104.99 -188.65,-192.22 -310.83,-217.43l-65.85 -13.63 66.83 -50.22c207.91,-156.26 337.4,-441.35 304.14,-669.58 -87.44,-599.78 -951.39,-609.07 -1280.45,-13.84 -21.22,38.31 -39.29,70.91 -40.19,72.42 -0.9,1.51 -30.51,-25.29 -65.85,-59.45 -73.29,-70.99 -132.16,-96.97 -332.26,-146.53 -186.19,-46.14 -224.29,-78.5 -161.71,-137.37 59.53,-55.96 189.15,-19.71 218.33,61.09 17.12,47.33 14,46.88 211.93,33.79l114.46 -7.59 -7.3 -45.61c-33.79,-211.32 -299.75,-327.71 -593.3,-259.48l0.07 -0.08zm-3560.29 529.46l0 522.68 336.87 0 0 -418.2 34.23 0c54.03,0 86.7,39.74 190.87,232.33l97.42 180 187.3 3.2c103,1.77 187.22,0.08 187.22,-3.73 0,-58.87 -209.92,-398.57 -268.18,-433.97l-31.94 -19.42 64.45 -33.71c238.95,-125.1 193.7,-483.47 -68.16,-539.64 -33.05,-7.06 -200.4,-12.36 -393.81,-12.36l-336.27 0 0 522.68 0 0.14zm5100.27 -431.7c525.73,137.21 477.6,874.82 -74.72,1144.11 -562.72,274.37 -1064.21,-176.05 -796.74,-715.57 156.05,-314.77 555.2,-511.07 871.38,-428.47l0.08 -0.07zm-4531.28 144.6c118.32,59.82 39.82,170.26 -127.77,179.78l-104.33 5.95 0 -200.69 101.65 0.16c58.18,0.08 113.93,6.4 130.44,14.74l0.01 0.06zm4345.33 92.42c-92.5,24.55 -186.56,118.03 -186.64,185.45 -0.16,110.15 87.89,149.86 226.43,102.18 84.75,-29.16 106.34,-29.16 122.03,0.08 26.56,49.72 -60.51,100.38 -111.31,64.74 -25.53,-17.86 -119.67,38.47 -120.62,72.18 -1.48,50.75 126.95,69.96 205.61,30.74 249.82,-124.49 178.88,-391.72 -80.22,-302.34 -103.58,35.72 -125.84,37.28 -125.84,8.55 0,-45.09 70.46,-77.68 101.2,-46.96 12.57,12.57 107.82,-50.59 107.82,-71.52 0,-31.25 -84.38,-57.6 -138.56,-43.15l0.1 0.05zm-374.97 250.64c-55.43,40.11 -58.05,29.69 43.6,173.99 62.57,88.77 86.62,132.61 84.24,153.38 -4.15,35.51 -43.97,44.95 -71.97,17.04 -17.78,-17.78 -22.41,-16.38 -64.51,19.71 -106.34,91.1 55.3,169.28 175.39,84.9 131.95,-92.71 132.16,-150.23 0.98,-341.79 -101.73,-148.62 -106.42,-151.58 -167.8,-107.16l0.07 -0.07zm-4263.95 641.29c-190.05,29.98 -301.31,141.1 -302.79,302.42 -1.48,164.6 105.22,258.37 369.54,324.51 162,40.56 215.34,71.52 215.34,124.86 0,150.23 -268.92,135.2 -297.37,-16.59 -9.97,-52.97 -8.7,-52.68 -180.23,-43.39l-152.11 8.26 7.59 47.63c34.69,218.33 161.63,309.19 444.47,318.06 224.29,6.99 301.39,-14.74 399.31,-112.66l67.05 -67.05 24.63 33.26c142.5,192.72 623.89,205.69 781.95,20.98 46.22,-53.95 98.08,-155.6 103.37,-202.41 3.73,-32.97 2.67,-33.55 -138.19,-76.28l-141.9 -43.07 -19.05 57.31c-64.9,195.34 -309.93,197.56 -363.75,3.36 -18.31,-66.01 -16.09,-223.68 4.15,-291.62 48.82,-164.23 255.01,-197.93 338.67,-55.3 34.9,59.53 25.53,58.42 183.89,22.62 150.76,-34.08 144.28,-28.05 109.91,-102.1 -136.34,-293.34 -594.65,-362.16 -837.67,-125.92l-67.79 65.93 -28.13 -48c-70.09,-119.67 -291.17,-181.13 -520.75,-144.81l-0.14 0zm3209.35 0.3c-128.67,22.33 -255.77,103.29 -327.58,208.57 -19.21,28.2 -19.71,25.9 -20.32,-84.32l-0.61 -113.27 -336.87 0 0 360.1 -336.87 -0.01 0 -360.1 -336.86 0.01 0 1045.45 336.86 -0.01 0 -418.2 336.87 0 0 418.2 336.87 0 0 -236.35 36.38 54.85c151.37,228.44 619.5,268.55 832.54,71.28 246.54,-228.23 198.17,-747.42 -82.97,-890.88 -108.51,-55.38 -298.93,-79.48 -437.49,-55.43l0.05 0.11zm-3020.46 214.18c19.42,10.05 42.2,37.28 54.56,65.27l21.22 48.07 226.96 -10.93 -7.43 59.24c-9.82,78.37 -14.21,81.33 -79.32,52.55 -30.67,-13.55 -116.47,-39.82 -190.79,-58.5 -175.84,-44.05 -197.72,-53.5 -206.72,-89.3 -16.67,-66.23 99.64,-108.8 181.64,-66.38l-0.12 -0.02zm3219.66 41.06c172.03,47.78 206.88,442.62 47.33,536.52 -119.14,70.09 -269.9,10.42 -305.25,-120.91 -70.25,-260.96 59.9,-470.59 257.92,-415.61zm1404.41 -0.29c199.87,55.51 195.79,504.67 -5.05,558.77 -161.48,43.44 -268.92,-68.77 -268.1,-279.96 0.9,-219.45 104.85,-325.57 273.18,-278.77l-0.03 -0.04z"/>
  <ellipse class="fil1 str0" cx="10897.22" cy="10057.52" rx="5842" ry="4042.83"/>
  <ellipse class="fil2 str0" cx="10897.22" cy="10091.79" rx="5471.58" ry="3653.76"/>
  <rect class="fil3 str0" x="8907.56" y="8512.35" width="889" height="3598.33"/>
  <rect class="fil3 str0" x="11553.39" y="8448.85" width="889" height="3598.33"/>
 </g>
</svg>
