<?xml version="1.0" encoding="UTF-8"?>
<!DOCTYPE svg PUBLIC "-//W3C//DTD SVG 1.1//EN" "http://www.w3.org/Graphics/SVG/1.1/DTD/svg11.dtd">
<!-- Creator: CorelDRAW 2019 (64-Bit) -->
<svg xmlns="http://www.w3.org/2000/svg" xml:space="preserve" width="210mm" height="297mm" version="1.1" style="shape-rendering:geometricPrecision; text-rendering:geometricPrecision; image-rendering:optimizeQuality; fill-rule:evenodd; clip-rule:evenodd"
viewBox="0 0 21000 29700"
 xmlns:xlink="http://www.w3.org/1999/xlink">
 <defs>
  <style type="text/css">
   <![CDATA[
    .str0 {stroke:#2B2A29;stroke-width:20;stroke-miterlimit:22.9256}
    .fil1 {fill:#603161}
    .fil2 {fill:#EECFDF}
    .fil0 {fill:white}
   ]]>
  </style>
 </defs>
 <g id="Слой_x0020_1">
  <metadata id="CorelCorpID_0Corel-Layer"/>
  <g id="_2238306593008">
   <path class="fil0" d="M9932.57 10154.05c-41.96,9.75 -62.8,31.86 -63.01,66.85 -0.23,40.76 22.59,59.47 95.79,78.55 35.57,9.27 47.67,25.33 30.84,40.94 -19.1,17.7 -56.48,6.22 -61.19,-18.81 -2.33,-12.49 -2.21,-12.46 -41.41,-10.27l-34.74 1.92 1.67 10.94c2.57,16.87 16.49,42.9 28.35,53.05 35.14,30.07 131.93,26.99 165.07,-5.28l9.69 -9.44 1.86 10.98c6.82,40.36 47.81,78.28 94.97,87.86l15.14 3.08 -8.94 11.72c-29.53,38.68 -30.36,117.77 -1.67,158.84 43.9,62.85 167.45,61.03 208.11,-3.06l7.57 -11.93 0 56.89 191.48 0 0 -61.17 -114.36 0 0 -178.19 -77.13 0 -0.15 27.26c-0.13,22.26 -0.73,26.3 -3.32,22.06 -14.65,-24.04 -43.19,-44.01 -71.16,-49.78l-15.08 -3.12 15.3 -11.5c47.6,-35.78 77.25,-101.05 69.63,-153.31 -20.02,-137.32 -217.82,-139.44 -293.16,-3.16 -4.86,8.77 -9,16.23 -9.2,16.58 -0.21,0.34 -6.99,-5.79 -15.08,-13.61 -16.78,-16.26 -30.26,-22.21 -76.07,-33.55 -42.63,-10.57 -51.35,-17.98 -37.02,-31.45 13.63,-12.82 43.3,-4.52 49.98,13.98 3.92,10.84 3.21,10.74 48.53,7.74l26.2 -1.74 -1.67 -10.44c-7.74,-48.38 -68.63,-75.03 -135.84,-59.41l0.02 -0.02zm-815.14 121.22l0 119.67 77.13 0 0 -95.75 7.83 0c12.37,0 19.85,9.1 43.7,53.2l22.31 41.21 42.88 0.73c23.58,0.41 42.87,0.02 42.87,-0.85 0,-13.48 -48.07,-91.26 -61.41,-99.36l-7.31 -4.45 14.76 -7.72c54.71,-28.64 44.35,-110.69 -15.61,-123.55 -7.56,-1.61 -45.88,-2.83 -90.16,-2.83l-76.99 0 0 119.67 0 0.03zm1167.72 -98.84c120.37,31.42 109.35,200.3 -17.11,261.95 -128.83,62.82 -243.65,-40.31 -182.41,-163.83 35.73,-72.07 127.11,-117.01 199.5,-98.1l0.02 -0.02zm-1037.45 33.11c27.09,13.7 9.12,38.98 -29.25,41.16l-23.89 1.36 0 -45.94 23.27 0.03c13.32,0.02 26.09,1.47 29.87,3.38l0 0.01zm994.88 21.16c-21.18,5.62 -42.72,27.02 -42.73,42.46 -0.04,25.22 20.12,34.31 51.84,23.39 19.4,-6.67 24.34,-6.67 27.94,0.02 6.08,11.39 -13.86,22.99 -25.49,14.83 -5.84,-4.09 -27.4,8.8 -27.61,16.52 -0.34,11.62 29.06,16.02 47.07,7.04 57.2,-28.5 40.96,-89.69 -18.37,-69.22 -23.71,8.18 -28.81,8.53 -28.81,1.95 0,-10.32 16.14,-17.78 23.17,-10.75 2.88,2.88 24.69,-11.58 24.69,-16.37 0,-7.16 -19.32,-13.19 -31.72,-9.88l0.02 0.01zm-85.85 57.39c-12.69,9.18 -13.29,6.79 9.98,39.83 14.33,20.33 19.83,30.36 19.29,35.12 -0.95,8.13 -10.07,10.29 -16.48,3.9 -4.07,-4.07 -5.13,-3.75 -14.77,4.51 -24.35,20.86 12.66,38.76 40.16,19.44 30.21,-21.23 30.25,-34.4 0.22,-78.25 -23.29,-34.03 -24.37,-34.71 -38.42,-24.54l0.02 -0.01zm-976.25 146.82c-43.51,6.86 -68.98,32.31 -69.32,69.24 -0.34,37.69 24.09,59.16 84.6,74.3 37.09,9.28 49.31,16.37 49.31,28.59 0,34.39 -61.57,30.95 -68.09,-3.8 -2.28,-12.13 -1.99,-12.06 -41.26,-9.94l-34.83 1.89 1.74 10.91c7.94,49.99 37.01,70.79 101.76,72.82 51.36,1.6 69.01,-3.37 91.43,-25.79l15.35 -15.36 5.64 7.62c32.62,44.12 142.84,47.09 179.03,4.8 10.58,-12.35 22.45,-35.62 23.66,-46.34 0.86,-7.55 0.62,-7.68 -31.63,-17.46l-32.49 -9.86 -4.36 13.12c-14.86,44.72 -70.96,45.23 -83.29,0.77 -4.19,-15.12 -3.68,-51.22 0.95,-66.77 11.18,-37.6 58.39,-45.32 77.54,-12.66 7.99,13.63 5.85,13.37 42.11,5.18 34.51,-7.81 33.03,-6.43 25.16,-23.38 -31.22,-67.16 -136.15,-82.92 -191.79,-28.83l-15.52 15.1 -6.44 -10.99c-16.05,-27.4 -66.66,-41.47 -119.23,-33.16l-0.03 0zm734.79 0.07c-29.46,5.11 -58.56,23.65 -75,47.75 -4.4,6.46 -4.51,5.93 -4.65,-19.3l-0.14 -25.94 -77.13 0 0 82.45 -77.12 0 0 -82.45 -77.13 0 0 239.36 77.13 0 0 -95.75 77.12 0 0 95.75 77.13 0 0 -54.11 8.33 12.56c34.66,52.3 141.84,61.48 190.61,16.32 56.45,-52.26 45.37,-171.13 -18.99,-203.97 -24.85,-12.68 -68.44,-18.2 -100.17,-12.7l0.01 0.03zm-691.54 49.04c4.45,2.3 9.66,8.53 12.49,14.94l4.86 11.01 51.96 -2.51 -1.7 13.57c-2.25,17.94 -3.25,18.62 -18.16,12.03 -7.02,-3.1 -26.67,-9.12 -43.68,-13.4 -40.26,-10.08 -45.27,-12.24 -47.33,-20.44 -3.82,-15.16 22.81,-24.91 41.59,-15.2l-0.03 0zm737.15 9.4c39.39,10.94 47.37,101.34 10.84,122.84 -27.28,16.04 -61.8,2.38 -69.89,-27.69 -16.08,-59.74 13.71,-107.74 59.05,-95.15zm321.54 -0.07c45.77,12.71 44.83,115.55 -1.15,127.93 -36.97,9.95 -61.57,-15.74 -61.38,-64.09 0.2,-50.25 24,-74.54 62.54,-63.83l-0.01 -0.01z"/>
   <ellipse class="fil1 str0" cx="9925.4" cy="9309.66" rx="1337.55" ry="925.62"/>
   <ellipse class="fil2 str0" cx="9925.4" cy="9317.51" rx="1252.74" ry="836.54"/>
   <polygon class="fil1 str0" points="9576.47,8975.28 9566.78,9614.98 10477.86,9314.51 "/>
  </g>
 </g>
</svg>
